<mxfile host="app.diagrams.net" modified="2024-02-27T14:20:26.887Z" agent="Mozilla/5.0 (Macintosh; Intel Mac OS X 10_15_7) AppleWebKit/537.36 (KHTML, like Gecko) Chrome/120.0.0.0 Safari/537.36" version="23.0.2" etag="KHeV7K0_LbRvoPaqL1aG" type="github">
  <diagram name="第 1 页" id="EifOAx8Nvuo8a-Rg7tMO">
    <mxGraphModel>
      <root>
        <mxCell id="0" />
        <mxCell id="1" parent="0" />
      </root>
    </mxGraphModel>
  </diagram>
</mxfile>
